<svg id="Layer_1" data-name="Layer 1" xmlns="http://www.w3.org/2000/svg" viewBox="0 0 116.58 118.54"><defs><style>.cls-1{fill:#27aae1;stroke:#1c75bc;stroke-miterlimit:10;}.cls-2{fill:#fff;}.cls-3{font-size:47px;fill:#231f20;font-family:Avenir-BookOblique, Avenir;font-style:oblique;}</style></defs><path class="cls-1" d="M4.86,41.48h.07l0-.12Z" transform="translate(-4.09 -3.6)"/><path class="cls-1" d="M98.62,120.7l.28-.51h-.38C98.55,120.35,98.58,120.53,98.62,120.7Z" transform="translate(-4.09 -3.6)"/><path class="cls-1" d="M109.71,6.2c-.15.35-.3.7-.46,1l.69,0C109.86,6.91,109.78,6.56,109.71,6.2Z" transform="translate(-4.09 -3.6)"/><path class="cls-1" d="M118.47,75c-1.36-4.8-3.12-9.51-3.91-14.44S114,50.78,114,45.89a189.1,189.1,0,0,0-4-38.62l-.69,0q-3.94,9.09-8.47,17.88A102.67,102.67,0,0,1,93.92,36.9a87.67,87.67,0,0,1-6.78,8.33h-.28q4.47,37.66,11.66,75h.38L120.15,82C119.68,79.6,119.13,77.28,118.47,75Z" transform="translate(-4.09 -3.6)"/><path class="cls-1" d="M42.22,43.18l44.64,2-.06-.46.06.46h.28a87.67,87.67,0,0,0,6.78-8.33,102.67,102.67,0,0,0,6.86-11.77q4.53-8.77,8.47-17.88L73.36,6.34C58.08,6,42.77,5.54,27.57,4.13A190.54,190.54,0,0,0,4.91,41.36l0,.12,30.63,1.4Z" transform="translate(-4.09 -3.6)"/><path class="cls-1" d="M42.22,43.18l-6.66-.3L4.93,41.48q1.61,11,3.22,22.05c1.06,7.29,2.13,14.59,2.63,21.94.8,11.56.27,23.5,3.27,34.57q42.23-.81,84.47.14-7.18-37.28-11.66-75Z" transform="translate(-4.09 -3.6)"/><path class="cls-2" d="M32.67,7a7.15,7.15,0,0,0-3.32.11,7.1,7.1,0,0,0-3,2.6q-5,6.38-9.6,13.06a5.16,5.16,0,0,0-1.12,2.57c0,.94.68,2,1.63,1.92l6.47-7.63a16,16,0,0,1,3.78-3.6,15.7,15.7,0,0,1,6.39-1.72q9.16-1.07,18.39-1.5a6,6,0,0,0,3-.65,2.06,2.06,0,0,0,.9-2.64c-1.34-2.26-8.08-.93-10.42-1C41.4,8.31,37,7.55,32.67,7Z" transform="translate(-4.09 -3.6)"/><path class="cls-2" d="M10.92,44.82a4,4,0,0,0-1.5.08A2.81,2.81,0,0,0,7.66,47a8.25,8.25,0,0,0,0,2.89L9.52,64.61c.1.82.41,1.85,1.24,1.9s1.25-.9,1.38-1.69c.41-2.35,0-4.75,0-7.12s.62-5,2.46-6.46a8.19,8.19,0,0,1,5.59-1.43,53,53,0,0,0,5.89.33,4.24,4.24,0,0,0,3.06-1.24c3-3.65-5.1-3.21-6.55-3.31Z" transform="translate(-4.09 -3.6)"/><path class="cls-2" d="M105.75,21.07c3.49-5.72,5.32-5,3.73,1.54-3.49,5.75-5.3,5-3.73-1.54Z" transform="translate(-4.09 -3.6)"/><path class="cls-2" d="M114.27,81.15c2.21-2.66,4.06-1.91,3.73,1.54-2.21,2.68-4,1.9-3.73-1.54Z" transform="translate(-4.09 -3.6)"/><path class="cls-2" d="M109.66,78.26c1.94-2.05,3.81-1.29,3.72,1.54-1.94,2.07-3.8,1.28-3.72-1.54Z" transform="translate(-4.09 -3.6)"/><path class="cls-2" d="M108.64,69.89c1.65-1.44,3.59-.65,3.73,1.54-1.65,1.46-3.58.65-3.73-1.54Z" transform="translate(-4.09 -3.6)"/><text class="cls-3" transform="translate(13.71 93.98)">HZ</text></svg>